<svg id="a8d5c748-29b7-4d73-a526-6fa039ebfcfc" data-name="Layer 1" xmlns="http://www.w3.org/2000/svg" viewBox="0 0 1169.97 145.08"><defs><style>.bf06b27e-6bac-49c4-9492-7dc6e4c77638{fill:#fff;}.b0fd3c90-8965-4f51-a3ee-bb0e7d688e96{fill:none;stroke:#4c4c4c;stroke-miterlimit:10;stroke-width:7px;}.be6d5edd-c921-460f-96c9-becad52e1892{font-size:60px;fill:#4c4c4c;font-family:HiraMaruPro-W4-83pv-RKSJ-H, Hiragino Maru Gothic Pro;}.b2ca6453-a997-452a-ae44-765f853fd99a{fill:#fc9010;}.b04d46e9-91cb-4c9c-a779-cd557e46bbe1{fill:#259010;}</style></defs><rect class="bf06b27e-6bac-49c4-9492-7dc6e4c77638" x="3.5" y="3.5" width="135.52" height="135.52" rx="15"/><rect class="b0fd3c90-8965-4f51-a3ee-bb0e7d688e96" x="3.5" y="3.5" width="135.52" height="135.52" rx="15"/><text class="be6d5edd-c921-460f-96c9-becad52e1892" transform="translate(40.27 95.34)">W</text><rect class="bf06b27e-6bac-49c4-9492-7dc6e4c77638" x="149.99" y="3.5" width="135.52" height="135.52" rx="15"/><rect class="b0fd3c90-8965-4f51-a3ee-bb0e7d688e96" x="149.99" y="3.5" width="135.52" height="135.52" rx="15"/><text class="be6d5edd-c921-460f-96c9-becad52e1892" transform="translate(193.6 95.34)">O</text><rect class="bf06b27e-6bac-49c4-9492-7dc6e4c77638" x="296.49" y="3.5" width="135.52" height="135.52" rx="15"/><rect class="b0fd3c90-8965-4f51-a3ee-bb0e7d688e96" x="296.49" y="3.5" width="135.52" height="135.52" rx="15"/><text class="be6d5edd-c921-460f-96c9-becad52e1892" transform="translate(340.87 95.34)">N</text><rect class="bf06b27e-6bac-49c4-9492-7dc6e4c77638" x="442.98" y="3.5" width="135.52" height="135.52" rx="15"/><rect class="b0fd3c90-8965-4f51-a3ee-bb0e7d688e96" x="442.98" y="3.5" width="135.52" height="135.52" rx="15"/><path class="b2ca6453-a997-452a-ae44-765f853fd99a" d="M528,99a19.25,19.25,0,0,1-10.5,2.76c-12.72,0-21-9.6-21-24.36,0-14.58,8-24.24,21-24.24,12.78,0,20.88,9.48,20.88,24.3,0,8.52-3.06,15-6.54,18.36l4.2,4.38a1.81,1.81,0,0,1,.66,1.44,2.39,2.39,0,0,1-.9,1.8,2.94,2.94,0,0,1-1.86.84,1.92,1.92,0,0,1-1.38-.6Zm-7.92-8a1.78,1.78,0,0,1-.66-1.38,2.58,2.58,0,0,1,1-1.86,2.43,2.43,0,0,1,1.8-.84,1.89,1.89,0,0,1,1.44.66l4.2,4.32c3-3.24,4.62-8.16,4.62-14.7,0-11.28-5.7-18.84-14.94-18.84s-15.06,7.62-15.06,19.14,5.94,19.08,15.06,19.08A12.87,12.87,0,0,0,524,94.93Z" transform="translate(-6.79 -4.99)"/><path class="b04d46e9-91cb-4c9c-a779-cd557e46bbe1" d="M531.84,95.77c1.21,1.21,2.63,2.68,4.2,4.38a1.81,1.81,0,0,1,.66,1.44,2.39,2.39,0,0,1-.9,1.8,2.94,2.94,0,0,1-1.86.84,1.92,1.92,0,0,1-1.38-.6L528,99a32.83,32.83,0,0,0-4-4c-1.43-1.22-2.55-2.78-4-4a2,2,0,0,1-.57-.83,2,2,0,0,1-.09-.55,3.46,3.46,0,0,1,1.8-2.48,2,2,0,0,1,1-.22A2.16,2.16,0,0,1,523,87a1.94,1.94,0,0,1,.62.48c1.34,1.5,2.9,2.79,4.2,4.32C529,93.12,528.7,92.61,531.84,95.77Z" transform="translate(-6.79 -4.99)"/><rect class="bf06b27e-6bac-49c4-9492-7dc6e4c77638" x="589.97" y="4.78" width="135.52" height="135.52" rx="15"/><rect class="b0fd3c90-8965-4f51-a3ee-bb0e7d688e96" x="589.97" y="4.78" width="135.52" height="135.52" rx="15"/><text class="be6d5edd-c921-460f-96c9-becad52e1892" transform="translate(634.51 96.62)">U</text><rect class="bf06b27e-6bac-49c4-9492-7dc6e4c77638" x="736.96" y="6.06" width="135.52" height="135.52" rx="15"/><rect class="b0fd3c90-8965-4f51-a3ee-bb0e7d688e96" x="736.96" y="6.06" width="135.52" height="135.52" rx="15"/><text class="be6d5edd-c921-460f-96c9-becad52e1892" transform="translate(785.31 97.9)">E</text><rect class="bf06b27e-6bac-49c4-9492-7dc6e4c77638" x="883.96" y="4.14" width="135.52" height="135.52" rx="15"/><rect class="b0fd3c90-8965-4f51-a3ee-bb0e7d688e96" x="883.96" y="4.14" width="135.52" height="135.52" rx="15"/><text class="be6d5edd-c921-460f-96c9-becad52e1892" transform="translate(928.5 95.98)">U</text><rect class="bf06b27e-6bac-49c4-9492-7dc6e4c77638" x="1030.95" y="5.42" width="135.52" height="135.52" rx="15"/><rect class="b0fd3c90-8965-4f51-a3ee-bb0e7d688e96" x="1030.95" y="5.42" width="135.52" height="135.52" rx="15"/><text class="be6d5edd-c921-460f-96c9-becad52e1892" transform="translate(1079.3 97.26)">E</text></svg>